<svg width="25" height="25" viewBox="0 0 25 25" fill="none" xmlns="http://www.w3.org/2000/svg">
<path d="M12.5 0C5.601 0 0 5.601 0 12.5C0 19.399 5.601 25 12.5 25C19.3865 25 24.9777 19.419 24.998 12.537C24.9993 12.5247 24.9999 12.5124 25 12.5C25 12.4889 24.9995 12.4778 24.9985 12.4668C24.9805 5.583 19.388 0 12.5 0ZM12.5 0.75C13.194 0.75 13.8725 0.8135 14.5332 0.92875C14.6927 1.27775 15.559 1.35275 14.6407 1.2915C14.2867 1.7965 12.886 0.76075 11.9532 1.30325C11.6735 1.69725 9.90325 2.12125 10.5682 2.76025C11.515 2.5885 10.464 2.7435 10.4923 3.2135C10.0083 3.381 9.32075 4.181 9.3305 3.36225C9.2105 2.76275 9.871 2.2105 8.80175 2.65975C8.743 2.98625 7.13325 3.61475 7.9385 3.75925C8.78525 3.33425 7.60025 4.43375 8.586 4C7.91325 4.305 8.4235 4.63775 8.11475 5.31C7.0265 4.80125 6.525 5.7655 6.29725 6.69C6.55525 6.71425 6.64275 6.849 6.61775 7.01C6.74825 7.02275 6.93275 7.04075 7.016 7.04825C7.56175 7.0065 8.06425 6.64875 8.32475 6.1275C8.9455 5.65425 9.4535 5.3825 10.2055 5.418C9.84475 5.35675 9.3635 6.9385 10.0948 6.33975C9.78025 4.9985 11.4897 6.46925 11.1152 6.4775C10.487 6.5705 10.2852 6.7315 10.8263 7.185C11.203 7.47175 11.4345 6.087 11.895 6.32825C11.8338 6.0645 10.7568 5.21575 10.916 5.26025C10.9528 5.2705 11.0553 5.32875 11.2515 5.45225C12.138 5.73125 11.9928 6.87475 12.7978 7.27675C13.3578 8.005 14.2242 6.8545 14.8365 7.2035C14.8575 7.684 15.3995 7.63525 15.3785 7.1205C15.9897 7.5885 15.3135 8.74225 14.4648 8.28075C13.6588 8.74525 12.5065 7.1775 12.0185 8.36675C11.801 8.92775 11.0563 7.9325 10.748 7.91125C9.67175 8.0305 10.705 6.85925 9.9595 6.73375C8.99875 6.7255 8.01025 7.12875 7.085 7.06875C6.58175 7.2235 6.266 7.43 5.96525 7.61575C5.6765 8.04675 5.109 8.35425 4.52525 9.17925C4.41825 9.34425 4.23225 9.54875 4.01075 9.79675C3.70775 10.8275 3.3365 11.8593 3.395 12.9318C4.05575 13.6287 4.21075 15.3123 5.50875 15.1788C6.36625 15.6217 7.01575 14.8568 7.81975 15.1138C7.968 15.949 9.536 15.6012 9.11325 16.4375C8.672 17.4365 9.9615 17.9182 10.1722 18.8275C10.7227 19.7365 9.34175 20.684 10.4508 21.4662C11.0648 22.4837 11.7763 24.0295 13.2458 23.4282C14.389 23.355 15.0883 22.3907 15.8022 21.733C15.7375 20.5265 17.917 20.658 17.4293 19.124C17.1418 18.943 17.4473 18.2178 17.2892 17.961C17.4527 17.6248 18.0288 16.667 18.586 16.1982C19.4403 15.5357 19.7985 14.4993 20.0805 13.4965C19.906 12.6532 19.508 13.4785 19.001 13.4427C17.652 13.943 19.0328 12.8628 19.5405 12.5553C20.257 12.133 20.954 11.4128 21.1117 10.6453C21.7757 9.92775 19.5085 9.23075 20.933 9.46525C21.8337 9.2895 22.2958 9.1825 22.5263 10.045C23.4088 10.394 23.3385 11.9932 23.8355 12.8643C24.093 12.5468 23.99 12.7935 24.0995 13.1753C24.387 12.351 23.7812 11.0227 23.9695 9.95125C24.1553 10.7881 24.2494 11.6427 24.25 12.5C24.25 18.9937 18.9937 24.25 12.5 24.25C6.00625 24.25 0.75 18.9937 0.75 12.5C0.75 7.4515 3.9275 3.1525 8.3925 1.48825C8.826 1.36425 9.26 1.2415 9.6845 1.09125C10.6058 0.864605 11.5512 0.750026 12.5 0.75ZM15.0732 1.03575C15.198 1.06325 15.3232 1.09025 15.4462 1.122C15.4178 1.31075 15.2592 1.19375 15.0732 1.03575ZM8.792 1.55475C8.505 1.56 8.17775 1.6665 8.26275 1.9325C8.42025 1.9905 8.584 1.9475 8.73825 1.90975C9.46375 1.70775 9.161 1.54775 8.792 1.55475ZM12.3202 2.49425C12.7022 2.438 12.3415 3.54 11.75 3.25575C10.7805 3.356 11.896 3.1945 11.9312 2.7495C12.1047 2.582 12.2322 2.507 12.3202 2.49425ZM17.6928 4.67625C17.7653 4.685 17.7873 4.77325 17.687 4.9835C17.6052 5.253 18.9195 6.12575 18.838 6.68175C17.671 6.988 18.4005 5.85025 17.6405 5.61875C16.8062 5.3425 17.4755 4.6505 17.693 4.67625H17.6928ZM14.308 4.8945C14.7415 5.47525 15.418 5.01975 16.0497 5.49125C16.8228 6.27125 14.8313 5.38875 14.4853 5.8385C13.4525 6.15625 13.9595 5.211 14.308 4.8945ZM4.209 8.4385C4.1355 8.4275 4.07525 8.4785 4.022 8.686C4.1995 8.69525 4.332 8.71525 4.42725 8.7455L4.48525 8.566C4.3745 8.526 4.2845 8.44975 4.209 8.4385ZM18.8037 8.5655C18.9737 9.15525 20.295 9.06175 19.975 9.61425L19.8242 9.72075C19.5662 9.552 18.493 8.84075 18.8037 8.5655ZM15.6695 9.3225C16.279 9.73825 16.7157 10.59 17.1055 11.2575C17.641 11.6385 17.658 12.2508 18.0055 12.7323C17.8635 12.9123 17.586 12.584 17.5292 12.4672C17.065 12.1425 16.6818 11.3173 16.3535 10.658C16.1473 10.201 15.644 9.78425 15.6695 9.3225ZM19.316 19.0485C19.2605 19.0448 19.176 19.1098 19.0567 19.2733C18.196 19.9075 17.5128 20.6623 17.4618 21.7507C18.058 22.0217 18.5633 20.9295 18.8838 20.5483C19.251 20.3705 19.556 19.0648 19.316 19.0485Z" fill="#51A8FC"/>
</svg>
