<svg width="10" height="11" viewBox="0 0 10 11" fill="none" xmlns="http://www.w3.org/2000/svg">
<path d="M2.17022 7.65319C3.48139 7.17554 3.90055 6.77234 3.90055 5.90904C3.90055 5.39096 3.47092 5.05519 3.32448 4.61118C3.17802 4.16715 3.09331 3.64145 3.02289 3.25904C2.95247 2.87663 2.92448 2.72872 2.88619 2.32127C2.83937 1.81277 3.17978 0.5 5 0.5C6.81967 0.5 7.16118 1.81277 7.1133 2.32127C7.075 2.72872 7.04687 2.87665 6.9766 3.25904C6.90632 3.64144 6.82243 4.16712 6.67607 4.61118C6.52972 5.05523 6.09949 5.39096 6.09949 5.90904C6.09949 6.77234 6.51864 7.17553 7.82981 7.65319C9.14574 8.13192 10 8.60399 10 8.9375V10.5H-9.53674e-07V8.9375C-9.53674e-07 8.60453 0.854783 8.13245 2.17022 7.65319Z" fill="#A3A1A3"/>
</svg>
