<svg width="10" height="11" viewBox="0 0 10 11" fill="none" xmlns="http://www.w3.org/2000/svg">
<path d="M8.23131 1.3585C8.18686 1.3585 8.1424 1.3475 8.10351 1.3255C7.03665 0.781 6.11425 0.55 5.0085 0.55C3.9083 0.55 2.86366 0.8085 1.91349 1.3255C1.78013 1.397 1.61343 1.3475 1.53564 1.2155C1.50099 1.15118 1.49322 1.07596 1.514 1.00602C1.53478 0.936085 1.58245 0.877011 1.64677 0.8415C2.6803 0.286 3.81384 0 5.0085 0C6.19205 0 7.22557 0.2585 8.35911 0.836C8.49802 0.9075 8.54803 1.0725 8.4758 1.2045C8.45383 1.25035 8.41922 1.28913 8.37597 1.31637C8.33272 1.34361 8.28257 1.35822 8.23131 1.3585ZM0.279858 4.246C0.228638 4.24647 0.178287 4.23289 0.13439 4.20677C0.0904927 4.18064 0.054765 4.14299 0.0311699 4.09799C0.00757477 4.05299 -0.00296557 4.00239 0.000718014 3.95183C0.0044016 3.90126 0.0221651 3.85269 0.0520382 3.8115C0.602139 3.0415 1.30227 2.4365 2.13575 2.013C3.88051 1.122 6.11425 1.1165 7.86457 2.0075C8.69806 2.431 9.39819 3.0305 9.94829 3.795C9.96961 3.82456 9.9848 3.858 9.99299 3.8934C10.0012 3.9288 10.0022 3.96546 9.99601 4.00125C9.98981 4.03705 9.97651 4.07127 9.95687 4.10195C9.93724 4.13263 9.91166 4.15916 9.88161 4.18C9.75381 4.268 9.58155 4.2405 9.49265 4.114C9.00604 3.43221 8.35969 2.87736 7.60897 2.497C6.01424 1.6885 3.97498 1.6885 2.3858 2.5025C1.6301 2.8875 0.996655 3.4375 0.496564 4.1305C0.452111 4.2075 0.368763 4.246 0.279858 4.246ZM3.75271 10.8845C3.71628 10.8849 3.68015 10.8778 3.64665 10.8636C3.61316 10.8494 3.58304 10.8284 3.55823 10.802C3.07481 10.3235 2.81365 10.0155 2.44136 9.35C2.05796 8.6735 1.85792 7.8485 1.85792 6.963C1.85792 5.3295 3.26929 3.9985 5.00294 3.9985C6.73659 3.9985 8.14796 5.3295 8.14796 6.963C8.14796 7.117 8.02571 7.238 7.87013 7.238C7.71455 7.238 7.5923 7.117 7.5923 6.963C7.5923 5.632 6.43098 4.5485 5.00294 4.5485C3.5749 4.5485 2.41358 5.632 2.41358 6.963C2.41358 7.755 2.59139 8.4865 2.93034 9.0805C3.28596 9.713 3.53045 9.9825 3.95831 10.4115C4.06388 10.5215 4.06388 10.692 3.95831 10.802C3.89718 10.857 3.82495 10.8845 3.75271 10.8845ZM7.73677 9.867C7.07554 9.867 6.4921 9.702 6.01424 9.3775C5.18631 8.822 4.69177 7.92 4.69177 6.963C4.69177 6.809 4.81402 6.688 4.9696 6.688C5.12519 6.688 5.24743 6.809 5.24743 6.963C5.24743 7.7385 5.6475 8.47 6.3254 8.921C6.71992 9.185 7.18112 9.3115 7.73677 9.3115C7.87013 9.3115 8.09239 9.295 8.31466 9.2565C8.46468 9.229 8.60915 9.328 8.63694 9.482C8.66472 9.6305 8.5647 9.7735 8.40912 9.801C8.09239 9.8615 7.81457 9.867 7.73677 9.867ZM6.6199 11C6.59768 11 6.56989 10.9945 6.54767 10.989C5.66417 10.747 5.08629 10.4225 4.48062 9.834C4.09682 9.45889 3.79249 9.01175 3.58544 8.51877C3.3784 8.02579 3.27281 7.49688 3.27485 6.963C3.27485 6.072 4.04166 5.346 4.98627 5.346C5.93089 5.346 6.69769 6.072 6.69769 6.963C6.69769 7.5515 7.21446 8.03 7.85346 8.03C8.49247 8.03 9.00923 7.5515 9.00923 6.963C9.00923 4.8895 7.20334 3.2065 4.98071 3.2065C3.40265 3.2065 1.95794 4.0755 1.30782 5.423C1.09112 5.8685 0.979985 6.391 0.979985 6.963C0.979985 7.392 1.01888 8.0685 1.35228 8.9485C1.40784 9.0915 1.33561 9.251 1.19113 9.3005C1.04666 9.3555 0.885524 9.2785 0.835515 9.141C0.567765 8.44542 0.43031 7.70736 0.429885 6.963C0.429885 6.303 0.557686 5.7035 0.807732 5.181C1.54676 3.6465 3.18594 2.651 4.98071 2.651C7.50895 2.651 9.56488 4.5815 9.56488 6.9575C9.56488 7.8485 8.79808 8.5745 7.85346 8.5745C6.90884 8.5745 6.14204 7.8485 6.14204 6.9575C6.14204 6.369 5.62528 5.8905 4.98627 5.8905C4.34727 5.8905 3.83051 6.369 3.83051 6.9575C3.83051 7.898 4.19724 8.778 4.86958 9.438C5.39746 9.955 5.90311 10.241 6.68658 10.4555C6.83661 10.494 6.91996 10.648 6.88106 10.791C6.85328 10.9175 6.73659 11 6.6199 11Z" fill="#A3A1A3"/>
</svg>
